# xmcd
#
# Track frame offsets:
#	150
#	8528
#	20660
#	33953
#	47014
#	55115
#	81593
#	86219
#	95223
#	108628
#	119229
#	127797
#	142012
#	154434
#	166885
#	181731
#	198628
#	213163
#	222963
#	236726
#	250750
#	265848
#	278488
#
# Disc length: 3834 seconds
#
# Revision: 0
# Processed by: cddbd v1.4PL0 Copyright (c) Steve Scherf et al.
# Submitted via: dBpowerAMP V4.0
#
DISCID=4e0ef817
DTITLE=Gillette Brothers - Live From The Camp St. Cafe
DYEAR=1900
DGENRE=Folklore
TTITLE0=Track01 The Rambler
TTITLE1=Track02 October Winds
TTITLE2=Track03 When The Wagon Was New
TTITLE3=Track04 Pal Of Mine
TTITLE4=Track05 Red River
TTITLE5=Track06 Leaving Of Texas
TTITLE6=Track07 Bodhran And Bones
TTITLE7=Track08 Marie's Wedding
TTITLE8=Track09 Long Summer Days
TTITLE9=Track10 Snow Drop
TTITLE10=Track11 Great Grand Dad
TTITLE11=Track12 Little Delia
TTITLE12=Track13 Lonesome Road
TTITLE13=Track14 Wild Colonial Boy
TTITLE14=Track15 The Gambler
TTITLE15=Track16 Darlin' Do You Remember Me
TTITLE16=Track17 Sonny and J.C.
TTITLE17=It Can't Be Done
TTITLE18=Starla
TTITLE19=Track20 Eileen Aroon
TTITLE20=Track21 Ain't Ya Comin Out Tonight?
TTITLE21=Track22 Cattle Call
TTITLE22=Track23 The Parting Glass
EXTD=Brothers from east Texas perform Western, Blues, Celtic on guitars, banjo, harmonica, bones, bodhran, and harmony
EXTT0=
EXTT1=
EXTT2=
EXTT3=
EXTT4=
EXTT5=
EXTT6=
EXTT7=
EXTT8=
EXTT9=
EXTT10=
EXTT11=
EXTT12=
EXTT13=
EXTT14=
EXTT15=
EXTT16=
EXTT17=
EXTT18=
EXTT19=
EXTT20=
EXTT21=
EXTT22=
PLAYORDER=
